<?xml version="1.0" encoding="UTF-8" standalone="no"?>
<!-- Created with Inkscape (http://www.inkscape.org/) -->

<svg
   width="25.610453mm"
   height="27.540115mm"
   viewBox="0 0 25.610453 27.540115"
   version="1.1"
   id="svg1"
   xml:space="preserve"
   xmlns="http://www.w3.org/2000/svg"
   xmlns:svg="http://www.w3.org/2000/svg"><defs
     id="defs1" /><g
     id="layer1"
     transform="translate(-427.74224,-546.27502)"><path
       style="fill:#000000;stroke-width:1"
       d="m 439.46138,573.74565 c -2.81924,-0.27873 -5.60484,-1.50518 -7.40609,-3.73752 -0.95207,-0.95346 -1.60652,-2.2558 -2.06082,-3.5357 -0.71531,-2.09857 -0.69931,-4.44302 -0.0438,-6.55654 0.63195,-2.03939 1.86006,-3.88011 3.54088,-5.20733 1.69837,-1.33985 3.88497,-2.07577 6.06216,-1.95034 2.9737,0.0732 5.88518,1.86633 7.14223,4.59077 0.80392,1.59428 0.8501,3.5158 0.35182,5.20768 -0.76282,2.55475 -3.17594,4.5782 -5.85963,4.71604 -1.87635,0.20277 -3.81722,-0.71542 -4.73366,-2.38883 -0.58166,-0.93205 -0.59521,-2.08382 -0.44195,-3.13417 0.3096,-1.66202 1.95905,-3.13537 3.69407,-2.88201 1.10894,0.0965 2.21827,1.20103 1.77273,2.35678 -0.51698,1.15882 -2.51615,-0.40848 -2.41726,1.42684 0.1301,1.25541 1.8117,1.62156 2.79332,1.09481 1.38119,-0.58595 2.21596,-2.12385 2.01051,-3.60497 -0.10088,-2.33212 -2.48581,-4.086 -4.73353,-3.94607 -2.69835,-0.0742 -5.05361,2.07839 -5.83114,4.56706 -0.45206,1.36905 -0.38955,2.86399 -0.10277,4.25958 0.63769,1.96841 2.04958,3.69672 3.9713,4.52471 2.51049,1.21863 5.60304,1.03017 8.02331,-0.32629 1.67109,-0.94962 3.04905,-2.42683 3.90457,-4.14839 0.6327,-1.0465 0.77006,-2.27144 1.08227,-3.42785 0.48619,-1.01361 1.9792,-1.12895 2.7633,-0.43683 0.79381,0.90474 0.2363,2.18131 -0.0334,3.18812 -0.72349,2.40901 -2.08487,4.64678 -3.99307,6.30639 -1.30379,1.19881 -2.90112,1.99886 -4.56091,2.56921 -1.58471,0.41802 -3.25457,0.67552 -4.89451,0.47485 z"
       id="path17-2-0-6-2-6-8" /><path
       d="m 435.22153,547.3136 c -0.83652,0.24065 -0.66779,1.95254 -0.44987,2.67686 0.2176,0.72441 0.42073,1.90023 1.26453,1.78309 0.84381,-0.1172 1.52109,-0.44165 1.65737,-1.26197 0.13623,-0.82038 0.0134,-2.29584 -0.45639,-2.89989 -0.46981,-0.60404 -1.17905,-0.53881 -2.01555,-0.2981 z m -3.72729,2.53891 c -0.55721,0.14024 -1.73747,0.94021 -1.18615,1.75812 0.5513,0.81789 0.98405,1.55792 1.75911,1.77413 0.77505,0.21622 1.48753,-0.44983 1.44135,-1.25302 -0.0466,-0.80314 -0.80559,-1.86312 -1.0854,-2.12616 -0.27981,-0.26302 -0.3717,-0.29338 -0.92891,-0.15307 z"
       id="path23-6-8-7-9-3-3"
       style="stroke-width:0.999996" /><path
       d="m 446.8896,547.07813 c -0.55336,0.8428 -1.77074,2.72774 -1.87493,3.97249 -0.10421,1.24476 1.90851,2.34366 2.8152,1.97018 0.9067,-0.37342 1.83367,-2.08857 2.45262,-3.24373 0.61896,-1.15516 -0.6616,-2.5635 -1.5547,-2.89765 -0.89311,-0.33414 -1.28484,-0.64409 -1.83819,0.1987 z"
       style="stroke-width:1"
       id="path1-90" /><path
       d="m 440.41649,546.64993 c -0.38415,0.37119 -0.85604,2.08793 -0.82498,3.1722 0.031,1.08429 1.70055,1.79755 2.40414,1.3433 0.70386,-0.45383 1.27657,-1.99111 1.20024,-3.18199 -0.0764,-1.19088 -0.67455,-1.44198 -1.34967,-1.62093 -0.67513,-0.17894 -1.04557,-0.0838 -1.42973,0.28742 z"
       style="stroke-width:1"
       id="path1-57" /><path
       d="m 428.33854,553.6032 c -0.29419,0.21095 -0.44398,0.74075 -0.58089,1.41868 -0.1369,0.67794 0.66727,0.8745 1.32831,1.12222 0.66105,0.24773 1.48195,-0.72574 1.3628,-1.42614 -0.11911,-0.7004 -0.98668,-1.01332 -1.2964,-1.1329 -0.30973,-0.11957 -0.51964,-0.19281 -0.81382,0.0181 z"
       style="stroke-width:0.999996"
       id="path1-0" /></g></svg>
